<?xml version="1.0" encoding="UTF-8" standalone="no"?>
<!DOCTYPE svg PUBLIC "-//W3C//DTD SVG 1.1//EN" "http://www.w3.org/Graphics/SVG/1.1/DTD/svg11.dtd">
<svg width="438px" height="155px" version="1.1" xmlns="http://www.w3.org/2000/svg" xmlns:xlink="http://www.w3.org/1999/xlink" xml:space="preserve" xmlns:serif="http://www.serif.com/" style="fill-rule:evenodd;clip-rule:evenodd;stroke-linejoin:round;stroke-miterlimit:2;">
    <g transform="matrix(1,0,0,1,-455.033,-787.734)">
        <g transform="matrix(1,0,0,1,189.362,588.937)">
            <path d="M283.284,256.183L265.67,256.183L265.67,241.978L283.284,241.978L283.284,226.922C283.284,220.672 284.752,215.463 287.687,211.297C290.623,207.13 294.435,204.005 299.122,201.922C303.81,199.838 308.757,198.797 313.966,198.797C318.085,198.797 321.447,199.128 324.051,199.791C326.655,200.454 328.597,201.069 329.875,201.638L325.045,216.126C324.193,215.842 323.021,215.487 321.53,215.061C320.038,214.635 318.085,214.422 315.67,214.422C310.131,214.422 306.141,215.818 303.703,218.612C301.265,221.406 300.045,225.501 300.045,230.899L300.045,241.978L324.477,241.978L324.477,256.183L300.045,256.183L300.045,351.069L283.284,351.069L283.284,256.183ZM373.829,353.342C363.981,353.342 355.352,350.998 347.942,346.311C340.532,341.623 334.755,335.066 330.612,326.638C326.469,318.209 324.398,308.361 324.398,297.092C324.398,285.728 326.469,275.809 330.612,267.334C334.755,258.858 340.532,252.277 347.942,247.589C355.352,242.902 363.981,240.558 373.829,240.558C383.678,240.558 392.307,242.902 399.717,247.589C407.127,252.277 412.904,258.858 417.047,267.334C421.19,275.809 423.261,285.728 423.261,297.092C423.261,308.361 421.19,318.209 417.047,326.638C412.904,335.066 407.127,341.623 399.717,346.311C392.307,350.998 383.678,353.342 373.829,353.342ZM373.829,338.285C381.311,338.285 387.466,336.368 392.295,332.532C397.125,328.697 400.7,323.655 403.02,317.405C405.34,311.155 406.5,304.384 406.5,297.092C406.5,289.8 405.34,283.006 403.02,276.709C400.7,270.411 397.125,265.321 392.295,261.439C387.466,257.556 381.311,255.615 373.829,255.615C366.348,255.615 360.193,257.556 355.364,261.439C350.534,265.321 346.959,270.411 344.639,276.709C342.319,283.006 341.159,289.8 341.159,297.092C341.159,304.384 342.319,311.155 344.639,317.405C346.959,323.655 350.534,328.697 355.364,332.532C360.193,336.368 366.348,338.285 373.829,338.285ZM451.591,205.615L451.591,351.069L434.829,351.069L434.829,205.615L451.591,205.615ZM476.273,351.069L476.273,241.978L493.034,241.978L493.034,351.069L476.273,351.069ZM484.795,223.797C481.528,223.797 478.723,222.684 476.379,220.459C474.035,218.233 472.864,215.558 472.864,212.433C472.864,209.308 474.035,206.633 476.379,204.407C478.723,202.182 481.528,201.069 484.795,201.069C488.062,201.069 490.868,202.182 493.212,204.407C495.555,206.633 496.727,209.308 496.727,212.433C496.727,215.558 495.555,218.233 493.212,220.459C490.868,222.684 488.062,223.797 484.795,223.797ZM519.932,352.206C516.428,352.206 513.421,350.951 510.912,348.441C508.402,345.932 507.148,342.925 507.148,339.422C507.148,335.918 508.402,332.911 510.912,330.402C513.421,327.892 516.428,326.638 519.932,326.638C523.436,326.638 526.442,327.892 528.952,330.402C531.461,332.911 532.716,335.918 532.716,339.422C532.716,341.742 532.136,343.872 530.976,345.814C529.816,347.755 528.277,349.306 526.359,350.466C524.442,351.626 522.299,352.206 519.932,352.206ZM578.932,353.626C572.019,353.626 565.745,352.312 560.111,349.684C554.476,347.057 550.002,343.245 546.687,338.25C543.373,333.254 541.716,327.206 541.716,320.103C541.716,313.853 542.947,308.775 545.409,304.869C547.871,300.963 551.162,297.897 555.281,295.672C559.4,293.446 563.958,291.777 568.953,290.665C573.948,289.552 578.979,288.664 584.045,288.001C590.674,287.149 596.06,286.498 600.203,286.048C604.346,285.598 607.376,284.829 609.294,283.74C611.212,282.651 612.17,280.757 612.17,278.058L612.17,277.49C612.17,270.482 610.265,265.037 606.453,261.155C602.641,257.272 596.877,255.331 589.159,255.331C581.157,255.331 574.883,257.083 570.338,260.586C565.793,264.09 562.597,267.831 560.75,271.808L544.841,266.126C547.682,259.497 551.481,254.325 556.24,250.608C560.998,246.891 566.207,244.287 571.865,242.795C577.523,241.304 583.098,240.558 588.591,240.558C592.095,240.558 596.131,240.972 600.7,241.801C605.269,242.629 609.696,244.322 613.981,246.879C618.266,249.436 621.829,253.295 624.67,258.456C627.511,263.617 628.932,270.53 628.932,279.194L628.932,351.069L612.17,351.069L612.17,336.297L611.318,336.297C610.182,338.664 608.288,341.197 605.636,343.896C602.985,346.595 599.457,348.891 595.054,350.785C590.65,352.679 585.276,353.626 578.932,353.626ZM581.489,338.569C588.117,338.569 593.716,337.267 598.285,334.663C602.855,332.059 606.311,328.697 608.655,324.578C610.998,320.459 612.17,316.126 612.17,311.581L612.17,296.24C611.46,297.092 609.909,297.861 607.518,298.548C605.127,299.235 602.381,299.826 599.28,300.324C596.178,300.821 593.172,301.247 590.26,301.602C587.348,301.957 584.992,302.253 583.193,302.49C578.837,303.058 574.777,303.969 571.013,305.224C567.248,306.479 564.218,308.349 561.922,310.835C559.625,313.321 558.477,316.694 558.477,320.956C558.477,326.78 560.643,331.171 564.976,334.13C569.308,337.09 574.812,338.569 581.489,338.569ZM661,256.183L644.523,256.183L644.523,241.978L661,241.978L661,215.842L677.761,215.842L677.761,241.978L701.057,241.978L701.057,256.183L677.761,256.183L677.761,319.819C677.761,324.554 678.46,328.093 679.856,330.437C681.253,332.781 683.052,334.343 685.254,335.125C687.456,335.906 689.788,336.297 692.25,336.297C694.097,336.297 695.612,336.19 696.795,335.977C697.979,335.764 698.926,335.586 699.636,335.444L703.045,350.501C701.909,350.927 700.323,351.365 698.287,351.815C696.251,352.265 693.67,352.49 690.545,352.49C685.811,352.49 681.182,351.472 676.66,349.436C672.139,347.4 668.398,344.299 665.439,340.132C662.48,335.965 661,330.709 661,324.365L661,256.183Z"/>
        </g>
    </g>
</svg>
